#!OML:ASF X:\für Bonn\!DataBase\2005_08_10_Bjorn_Final\c3d\bjorn.ASF
:FULLY-SPECIFIED
:DEGREES
31
root -11.8067 18.7455 0.718613 761.334 84.3252 49.1332
lowerback 0.47765 -1.26797 6.71036
upperback 9.82873 -1.93178 4.02286
thorax 10.1301 -0.392194 0.444722
lowerneck 6.63321 0.679068 3.52869
upperneck 21.2135 4.51157 -14.0557
head 5.61877 2.16659 -4.95339
rclavicle -1.07344e-014 6.36111e-015
rhumerus -19.556 -6.08112 -76.6516
rradius 47.6223
rwrist -1.22469
rhand -11.4206 13.0851
rfingers 7.12502
rthumb 14.6153 -16.3799
lclavicle -1.07344e-014 6.36111e-015
lhumerus -29.7432 -10.2555 68.7547
lradius 40.2865
lwrist -16.8546
lhand -29.8931 -13.585
lfingers 7.12502
lthumb -3.21426 16.3705
rfemur -5.2566 3.11544 15.1865
rtibia 39.4112
rfoot -24.0034 7.82415
rtoes -15.0539
lfemur -42.5717 9.97668 -18.3433
ltibia 66.0578
lfoot -8.14512 -0.999041
ltoes -24.2445
32
root -11.763 18.7192 0.720775 759.731 84.2623 47.514
lowerback 0.453075 -1.32102 6.73031
upperback 9.8934 -2.00936 4.05047
thorax 10.2165 -0.425143 0.458979
lowerneck 6.67686 0.730515 3.57022
upperneck 21.0806 4.58455 -14.2053
head 5.57855 2.20058 -5.00657
rclavicle 2.38542e-015 1.59028e-014
rhumerus -19.297 -5.92424 -76.7269
rradius 47.8497
rwrist -1.14382
rhand -11.3853 13.1388
rfingers 7.12502
rthumb 14.6493 -16.3238
lclavicle 2.38542e-015 1.59028e-014
lhumerus -29.6767 -10.2683 68.5621
lradius 40.388
lwrist -16.987
lhand -30.0297 -13.4343
lfingers 7.12502
lthumb -3.34611 16.5192
rfemur -5.32624 3.33106 15.3138
rtibia 39.7939
rfoot -24.3371 7.7466
rtoes -14.9194
lfemur -42.523 9.96593 -18.1243
ltibia 64.9234
lfoot -7.88361 -1.04853
ltoes -24.6845
33
root -11.7195 18.6926 0.723677 758.177 84.1926 45.9473
lowerback 0.418639 -1.38118 6.71968
upperback 9.9727 -2.09649 4.07616
thorax 10.3259 -0.464336 0.487456
lowerneck 6.70545 0.775983 3.68031
upperneck 20.9475 4.65953 -14.4142
head 5.54245 2.23691 -5.09143
rclavicle -1.98785e-015 1.27222e-014
rhumerus -19.0392 -5.78058 -76.8233
rradius 48.069
rwrist -1.06072
rhand -11.3727 13.1858
rfingers 7.12502
rthumb 14.6615 -16.2758
lclavicle -1.98785e-015 1.27222e-014
lhumerus -29.6102 -10.2774 68.3743
lradius 40.4626
lwrist -17.0787
lhand -30.2307 -13.2641
lfingers 7.12502
lthumb -3.54029 16.6862
rfemur -5.38527 3.53694 15.4443
rtibia 40.1705
rfoot -24.6909 7.64611
rtoes -14.8098
lfemur -42.4293 9.95101 -17.8923
ltibia 63.7707
lfoot -7.53916 -1.16032
ltoes -24.8395
34
root -11.6755 18.6657 0.725517 756.775 84.1003 44.5267
lowerback 0.380154 -1.42419 6.70974
upperback 10.048 -2.16053 4.08761
thorax 10.4337 -0.491909 0.501782
lowerneck 6.73246 0.822476 3.7735
upperneck 20.8327 4.73095 -14.5784
head 5.51169 2.27219 -5.15893
rclavicle -1.59028e-014 3.81667e-014
rhumerus -18.8122 -5.70975 -76.9179
rradius 48.3043
rwrist -0.976678
rhand -11.3075 13.1774
rfingers 7.12502
rthumb 14.7242 -16.2797
lclavicle -1.59028e-014 3.81667e-014
lhumerus -29.5279 -10.2511 68.1938
lradius 40.4896
lwrist -17.2693
lhand -30.4644 -13.192
lfingers 7.12502
lthumb -3.76591 16.7544
rfemur -5.44087 3.80242 15.5559
rtibia 40.5252
rfoot -25.0164 7.52577
rtoes -14.5033
lfemur -42.3081 9.91382 -17.6743
ltibia 62.6017
lfoot -7.10971 -1.34634
ltoes -24.6138
35
root -11.6303 18.6404 0.728193 755.485 84.0059 43.2201
lowerback 0.335335 -1.49801 6.63315
upperback 10.1323 -2.26539 4.13381
thorax 10.5574 -0.546232 0.586995
lowerneck 6.75644 0.905657 3.78582
upperneck 20.6853 4.84625 -14.7436
head 5.47514 2.32351 -5.2105
rclavicle 1.11319e-014 -1.27222e-014
rhumerus -18.5724 -5.51836 -76.98
rradius 48.5438
rwrist -0.891949
rhand -11.2397 13.1486
rfingers 7.12502
rthumb 14.7896 -16.3037
lclavicle 1.11319e-014 -1.27222e-014
lhumerus -29.5053 -10.1362 68.0545
lradius 40.5306
lwrist -17.4355
lhand -30.6557 -13.1607
lfingers 7.12502
lthumb -3.95064 16.7825
rfemur -5.46642 4.06642 15.666
rtibia 40.8544
rfoot -25.3352 7.41453
rtoes -14.2805
lfemur -42.1389 9.88461 -17.4492
ltibia 61.4191
lfoot -6.62413 -1.63195
ltoes -24.0386
36
root -11.5849 18.6166 0.729713 753.741 83.9072 41.4612
lowerback 0.297731 -1.54065 6.65672
upperback 10.2175 -2.33044 4.14107
thorax 10.6757 -0.570499 0.578379
lowerneck 6.73715 0.98141 3.83637
upperneck 20.5854 4.94231 -14.826
head 5.45855 2.36816 -5.24212
rclavicle -1.03368e-014 3.49861e-014
rhumerus -18.364 -5.45012 -77.097
rradius 48.7758
rwrist -0.789786
rhand -11.1013 13.1511
rfingers 7.12502
rthumb 14.9229 -16.2913
lclavicle -1.03368e-014 3.49861e-014
lhumerus -29.4457 -10.1919 67.8775
lradius 40.559
lwrist -17.5409
lhand -30.8635 -13.1299
lfingers 7.12502
lthumb -4.15129 16.8094
rfemur -5.48753 4.34693 15.8164
rtibia 41.1595
rfoot -25.6517 7.29022
rtoes -13.9834
lfemur -41.9377 9.8616 -17.1652
ltibia 60.2286
lfoot -6.03529 -1.85563
ltoes -23.3909
37
root -11.5394 18.5942 0.731339 752.416 83.7828 40.1103
lowerback 0.246173 -1.59904 6.58428
upperback 10.2995 -2.41564 4.18503
thorax 10.8027 -0.615114 0.660126
lowerneck 6.71111 1.09054 3.71979
upperneck 20.5275 5.07819 -14.8318
head 5.45785 2.42362 -5.21798
rclavicle -1.11319e-014 -2.54444e-014
rhumerus -18.1814 -5.28371 -77.1517
rradius 49.0527
rwrist -0.726629
rhand -10.984 13.0869
rfingers 7.12502
rthumb 15.0359 -16.3472
lclavicle -1.11319e-014 -2.54444e-014
lhumerus -29.4368 -10.0856 67.7789
lradius 40.5734
lwrist -17.7535
lhand -31.057 -13.115
lfingers 7.12502
lthumb -4.33818 16.8206
rfemur -5.49813 4.6227 15.9177
rtibia 41.434
rfoot -25.9286 7.17981
rtoes -13.6689
lfemur -41.7098 9.80527 -16.9208
ltibia 59.0355
lfoot -5.38871 -1.97348
ltoes -22.794
